<?xml version="1.0" encoding="UTF-8"?>
<svg width="22px" height="22px" viewBox="0 0 22 22" version="1.1" xmlns="http://www.w3.org/2000/svg" xmlns:xlink="http://www.w3.org/1999/xlink">
    <!-- Generator: Sketch 52.5 (67469) - http://www.bohemiancoding.com/sketch -->
    <title>分组</title>
    <desc>Created with Sketch.</desc>
    <defs>
        <rect id="path-1" x="0" y="0" width="22" height="22"></rect>
        <polygon id="path-3" points="0.0001 0.0002 21.409 0.0002 21.409 21.4992 0.0001 21.4992"></polygon>
    </defs>
    <g id="我的" stroke="none" stroke-width="1" fill="none" fill-rule="evenodd">
        <g transform="translate(-84.000000, -625.000000)" id="Group-2">
            <g transform="translate(0.000000, 618.000000)">
                <g id="分组-3" transform="translate(84.000000, 7.000000)">
                    <g id="分组">
                        <mask id="mask-2" fill="white">
                            <use xlink:href="#path-1"></use>
                        </mask>
                        <g id="Mask" fill-rule="nonzero"></g>
                        <g mask="url(#mask-2)">
                            <mask id="mask-4" fill="white">
                                <use xlink:href="#path-3"></use>
                            </mask>
                            <g id="Clip-2"></g>
                            <path d="M13.8571,19.9992 L15.8471,19.9992 C16.7361,19.9992 17.4591,19.3452 17.4591,18.5412 L17.4591,11.3732 C17.4591,11.0702 17.6411,10.7972 17.9211,10.6812 C18.2001,10.5632 18.5231,10.6282 18.7381,10.8422 L18.8891,10.9922 C19.1231,11.2252 19.5021,11.2262 19.7341,10.9932 C19.8461,10.8812 19.9091,10.7302 19.9091,10.5712 C19.9091,10.4122 19.8461,10.2622 19.7341,10.1492 L11.2581,1.6742 C11.1291,1.5452 10.9491,1.4792 10.7721,1.5032 C10.7181,1.5092 10.6671,1.5092 10.6151,1.5032 C10.4351,1.4822 10.2601,1.5462 10.1331,1.6742 L1.6731,10.1342 C1.5611,10.2462 1.5001,10.3952 1.5001,10.5542 C1.5001,10.7122 1.5611,10.8612 1.6731,10.9742 C1.8941,11.1942 2.2521,11.2062 2.4841,11.0012 C2.7071,10.8072 3.0211,10.7622 3.2891,10.8832 C3.5561,11.0042 3.7281,11.2712 3.7281,11.5652 L3.7281,18.5412 C3.7281,19.3452 4.4521,19.9992 5.3401,19.9992 L7.4851,19.9992 L7.4851,14.4982 C7.4851,14.0842 7.8211,13.7482 8.2351,13.7482 L13.1071,13.7482 C13.5211,13.7482 13.8571,14.0842 13.8571,14.4982 L13.8571,19.9992 Z M15.8471,21.4992 L13.1071,21.4992 C12.6931,21.4992 12.3571,21.1632 12.3571,20.7492 L12.3571,15.2482 L8.9851,15.2482 L8.9851,20.7492 C8.9851,21.1632 8.6491,21.4992 8.2351,21.4992 L5.3401,21.4992 C3.6251,21.4992 2.2281,20.1722 2.2281,18.5412 L2.2281,12.6422 C1.6501,12.6832 1.0531,12.4742 0.6131,12.0342 C0.2171,11.6402 0.0001,11.1132 0.0001,10.5542 C0.0001,9.9942 0.2171,9.4682 0.6131,9.0732 L9.0731,0.6132 C9.5031,0.1842 10.0951,-0.0328 10.6901,0.0042 C11.2941,-0.0278 11.8871,0.1822 12.3191,0.6132 L20.7941,9.0892 C21.1901,9.4842 21.4091,10.0112 21.4091,10.5712 C21.4091,11.1312 21.1901,11.6572 20.7941,12.0542 C20.2951,12.5522 19.6071,12.7442 18.9591,12.6372 L18.9591,18.5412 C18.9591,20.1722 17.5631,21.4992 15.8471,21.4992 Z" id="Fill-1" fill="#888888" mask="url(#mask-4)"></path>
                        </g>
                    </g>
                </g>
            </g>
        </g>
    </g>
</svg>