<?xml version="1.0" encoding="UTF-8"?>
<svg width="22px" height="21px" viewBox="0 0 22 21" version="1.1" xmlns="http://www.w3.org/2000/svg" xmlns:xlink="http://www.w3.org/1999/xlink">
    <!-- Generator: Sketch 52.5 (67469) - http://www.bohemiancoding.com/sketch -->
    <title>分组</title>
    <desc>Created with Sketch.</desc>
    <defs>
        <rect id="path-1" x="0" y="0" width="22" height="22"></rect>
    </defs>
    <g id="首页" stroke="none" stroke-width="1" fill="none" fill-rule="evenodd">
        <g id="首页风格4-ding" transform="translate(-272.000000, -804.000000)">
            <g id="Group-2" transform="translate(0.000000, 797.000000)">
                <g id="分组-4" transform="translate(272.000000, 7.000000)">
                    <g id="分组">
                        <mask id="mask-2" fill="white">
                            <use xlink:href="#path-1"></use>
                        </mask>
                        <g id="Mask" fill-rule="nonzero"></g>
                        <path d="M10.948,11.8006 C16.499,11.8006 21.073,14.8206 21.09,18.5566 C21.09,19.8306 20.235,20.3016 17.756,20.7026 C15.993,20.9996 13.514,20.9996 11,20.9996 C8.539,20.9996 6.235,20.9996 4.28,20.7026 C1.766,20.3196 0.91,19.8306 0.91,18.5566 C0.91,14.8206 5.414,11.8006 10.948,11.8006 Z M10.948,13.3006 C6.32,13.3006 2.41,15.7066 2.41,18.5566 C2.41,18.6126 2.414,18.6506 2.417,18.6736 C2.532,18.7626 2.962,18.9846 4.506,19.2206 C6.348,19.4996 8.608,19.4996 11,19.4996 C13.393,19.4996 15.867,19.4996 17.507,19.2246 C19.038,18.9766 19.467,18.7576 19.584,18.6696 C19.587,18.6466 19.59,18.6106 19.59,18.5566 C19.577,15.7106 15.619,13.3006 10.948,13.3006 Z M11.0003,-0.0002 C14.0183,-0.0002 16.4643,2.4458 16.4643,5.4638 C16.4643,8.4808 14.0183,10.9278 11.0003,10.9278 C7.9823,10.9278 5.5363,8.4808 5.5363,5.4638 C5.5363,2.4458 7.9823,-0.0002 11.0003,-0.0002 Z M11.0003,1.4998 C8.8143,1.4998 7.0363,3.2778 7.0363,5.4638 C7.0363,7.6488 8.8143,9.4278 11.0003,9.4278 C13.1863,9.4278 14.9643,7.6488 14.9643,5.4638 C14.9643,3.2778 13.1863,1.4998 11.0003,1.4998 Z" id="合并形状" fill="#888888" mask="url(#mask-2)"></path>
                    </g>
                </g>
            </g>
        </g>
    </g>
</svg>