<?xml version="1.0" encoding="UTF-8"?>
<svg width="21px" height="22px" viewBox="0 0 21 22" version="1.1" xmlns="http://www.w3.org/2000/svg" xmlns:xlink="http://www.w3.org/1999/xlink">
    <!-- Generator: Sketch 52.5 (67469) - http://www.bohemiancoding.com/sketch -->
    <title>分组</title>
    <desc>Created with Sketch.</desc>
    <defs>
        <rect id="path-1" x="0" y="0" width="22" height="22"></rect>
        <linearGradient x1="36.7402086%" y1="-60.7022019%" x2="100%" y2="124.53324%" id="linearGradient-3">
            <stop stop-color="#80D7FF" offset="0%"></stop>
            <stop stop-color="#2D79FF" offset="100%"></stop>
        </linearGradient>
    </defs>
    <g id="我的" stroke="none" stroke-width="1" fill="none" fill-rule="evenodd">
        <g transform="translate(-272.000000, -625.000000)" id="Group-2">
            <g transform="translate(0.000000, 618.000000)">
                <g id="分组-4" transform="translate(272.000000, 7.000000)">
                    <g id="分组">
                        <mask id="mask-2" fill="white">
                            <use xlink:href="#path-1"></use>
                        </mask>
                        <g id="Mask" fill-rule="nonzero"></g>
                        <g mask="url(#mask-2)" fill="url(#linearGradient-3)">
                            <g transform="translate(0.500000, 0.500000)">
                                <path d="M10.0371,11.8008 C4.5041,11.8008 0.0001,14.8208 0.0001,18.5558 C0.0001,19.8298 0.8551,20.3198 3.3691,20.7028 C5.3241,20.9998 7.6291,20.9998 10.0901,20.9998 C10.7181,20.9998 11.3451,20.9998 11.9581,20.9948 C12.5711,20.9898 13.1721,20.9818 13.7491,20.9628 C14.9031,20.9258 15.9641,20.8518 16.8461,20.7028 C19.3241,20.3018 20.1801,19.8298 20.1801,18.5558 C20.1621,14.8208 15.5891,11.8008 10.0371,11.8008" id="Fill-1"></path>
                                <path d="M5.5595,8.5186 C5.9525,9.0996 6.4535,9.6016 7.0355,9.9946 C7.9075,10.5836 8.9575,10.9276 10.0895,10.9276 C13.1075,10.9276 15.5535,8.4816 15.5535,5.4636 C15.5535,2.4466 13.1075,-0.0004 10.0895,-0.0004 C8.9575,-0.0004 7.9075,0.3436 7.0355,0.9336 C6.4535,1.3266 5.9525,1.8276 5.5595,2.4096 C5.4605,2.5546 5.3695,2.7056 5.2855,2.8596 C4.8655,3.6336 4.6255,4.5206 4.6255,5.4636 C4.6255,6.4076 4.8655,7.2936 5.2855,8.0686 C5.3695,8.2226 5.4605,8.3726 5.5595,8.5186" id="Fill-3"></path>
                            </g>
                        </g>
                    </g>
                </g>
            </g>
        </g>
    </g>
</svg>